<svg width="24" height="25" viewBox="0 0 24 25" fill="none" xmlns="http://www.w3.org/2000/svg">
<g clip-path="url(#clip0_161_49164)">
<path fill-rule="evenodd" clip-rule="evenodd" d="M9.05147 10.7701C9.48165 10.9402 9.93892 11.0317 10.4015 11.0401C10.7877 11.0652 11.1752 11.0652 11.5615 11.0401C12.3615 10.9801 12.9515 10.8001 14.0415 10.7501C14.2615 10.7501 14.9015 10.8201 15.3115 10.7501C15.5278 10.733 15.737 10.6645 15.9215 10.5501C16.2732 10.2894 16.5296 9.92054 16.6515 9.50008C16.8323 8.74088 16.8897 7.95752 16.8215 7.18008C16.8215 6.61008 16.9015 5.54008 16.8215 4.67008C16.8002 4.23289 16.6914 3.80443 16.5015 3.41008C16.2466 2.9745 15.9484 2.56577 15.6115 2.19008C15.1374 1.64869 14.6297 1.13768 14.0915 0.660077C13.9708 0.552203 13.8132 0.494909 13.6515 0.500077C13.3215 0.500077 12.5315 0.650077 12.4015 0.660077L9.49147 1.05008C9.41916 1.05919 9.35086 1.08838 9.2943 1.13433C9.23774 1.18029 9.19519 1.24117 9.17147 1.31008C9.14679 1.24246 9.10186 1.18409 9.04281 1.14294C8.98376 1.10178 8.91345 1.07983 8.84147 1.08008C8.79681 1.08137 8.75285 1.09145 8.71209 1.10975C8.67134 1.12804 8.63458 1.15419 8.60394 1.18669C8.57329 1.21919 8.54935 1.25742 8.53348 1.29918C8.51762 1.34094 8.51014 1.38542 8.51147 1.43008L8.41147 7.37008C8.41147 7.81008 8.27147 8.54008 8.26147 9.16008C8.24476 9.48136 8.2854 9.80304 8.38147 10.1101C8.44193 10.2601 8.53261 10.3962 8.64787 10.5097C8.76313 10.6233 8.90051 10.7119 9.05147 10.7701ZM14.8115 2.87008C15.0876 3.20105 15.3289 3.55961 15.5315 3.94008C15.6061 4.12156 15.65 4.31418 15.6615 4.51008L15.6015 4.50008C15.0364 4.39066 14.4654 4.31387 13.8915 4.27008C13.6811 4.23997 13.4778 4.17223 13.2915 4.07008C13.2915 3.90008 13.3715 3.63008 13.3715 3.44008V2.49008L13.3115 1.63008C13.4515 1.63008 13.5715 1.63008 13.6215 1.53008C14.0422 1.95475 14.4395 2.40208 14.8115 2.87008ZM9.58147 1.87008L12.4515 1.61008L12.3015 2.46008C12.3015 2.54008 12.1915 2.88008 12.1215 3.27008C12.0835 3.56526 12.0635 3.86247 12.0615 4.16008C12.0495 4.33531 12.0775 4.51096 12.1433 4.67379C12.2092 4.83663 12.3111 4.98239 12.4415 5.10008C12.7643 5.27972 13.1229 5.38559 13.4915 5.41008C14.1515 5.41008 14.8415 5.25008 15.4915 5.29008C15.5533 5.30931 15.6196 5.30931 15.6815 5.29008C15.6815 6.05008 15.5715 6.85008 15.5715 7.29008C15.6099 7.75929 15.6099 8.23086 15.5715 8.70008C15.3715 10.2701 14.6615 9.49008 14.0215 9.52008C12.9115 9.59008 12.3115 9.77008 11.4915 9.85008C11.1585 9.87194 10.8244 9.87194 10.4915 9.85008C10.2335 9.85534 9.97555 9.83525 9.72147 9.79008C9.63147 9.79008 9.53147 9.65008 9.48147 9.70008C9.41648 9.45907 9.38949 9.2094 9.40147 8.96008C9.40147 8.39008 9.47147 7.78008 9.45147 7.40008L9.20147 1.62008C9.23725 1.68784 9.29269 1.74321 9.36051 1.7789C9.42833 1.81459 9.50535 1.82895 9.58147 1.82008V1.87008Z" fill="black"/>
<path fill-rule="evenodd" clip-rule="evenodd" d="M21.8008 19.6501C21.6646 19.5055 21.5059 19.3839 21.3308 19.2901C21.1916 19.2315 21.0478 19.1847 20.9008 19.1501C21.2513 18.8275 21.5011 18.4104 21.6199 17.9491C21.7388 17.4878 21.7217 17.0019 21.5708 16.5501C21.3966 15.9906 21.0585 15.4961 20.6004 15.1307C20.1423 14.7652 19.5851 14.5456 19.0008 14.5001C18.4687 14.4613 17.9412 14.6217 17.5208 14.9501C16.977 15.4064 16.6209 16.0474 16.5208 16.7501C16.4284 17.1463 16.4488 17.5605 16.5796 17.9457C16.7103 18.331 16.9463 18.672 17.2608 18.9301C17.0014 18.9913 16.7497 19.0819 16.5108 19.2001C16.3475 19.2942 16.1992 19.4121 16.0708 19.5501C15.943 19.6935 15.8323 19.8512 15.7408 20.0201C15.5371 20.4051 15.4114 20.8264 15.3708 21.2601C15.1914 21.0395 14.9829 20.8444 14.7508 20.6801C14.509 20.5317 14.2547 20.4045 13.9908 20.3001C14.3181 19.9296 14.5406 19.4785 14.6356 18.9934C14.7305 18.5083 14.6943 18.0066 14.5308 17.5401C14.2723 16.7891 13.7338 16.167 13.0276 15.8036C12.3214 15.4403 11.5021 15.3638 10.7408 15.5901C10.2564 15.7413 9.81833 16.0128 9.46746 16.3794C9.11659 16.7459 8.86443 17.1955 8.73456 17.686C8.60469 18.1765 8.60135 18.6919 8.72487 19.1841C8.84838 19.6762 9.09471 20.129 9.4408 20.5001C9.3008 20.5601 9.15081 20.6101 9.02081 20.6801C8.77878 20.8318 8.55411 21.0095 8.35081 21.2101C8.35081 21.2701 8.27081 21.3401 8.22081 21.3901C8.17171 20.9447 8.03582 20.5132 7.82081 20.1201C7.72088 19.9463 7.59624 19.788 7.45081 19.6501C7.31758 19.5133 7.16616 19.3955 7.00081 19.3001C6.85378 19.2443 6.7035 19.1976 6.55081 19.1601C6.90322 18.8366 7.15413 18.4178 7.27307 17.9545C7.392 17.4912 7.37385 17.0033 7.22081 16.5501C7.04098 16.0058 6.70544 15.5262 6.25573 15.1707C5.80603 14.8152 5.26192 14.5994 4.69081 14.5501C4.16176 14.5109 3.63724 14.6714 3.22081 15.0001C2.67404 15.4539 2.31723 16.0961 2.22081 16.8001C2.12604 17.1963 2.14523 17.6112 2.27617 17.9969C2.40711 18.3826 2.64445 18.7235 2.96081 18.9801C2.69777 19.0446 2.44283 19.1385 2.20081 19.2601C2.03938 19.3608 1.89151 19.4818 1.76081 19.6201C1.63305 19.7635 1.52231 19.9212 1.43081 20.0901C1.21095 20.4656 1.06499 20.8797 1.00081 21.3101C0.985332 21.358 0.979538 21.4085 0.983759 21.4587C0.987981 21.5089 1.00213 21.5577 1.02539 21.6024C1.04866 21.647 1.08056 21.6866 1.11926 21.7189C1.15796 21.7511 1.20267 21.7753 1.25081 21.7901C1.34764 21.8221 1.45317 21.8149 1.54476 21.77C1.63636 21.7252 1.70673 21.6462 1.74081 21.5501C1.83331 21.3787 1.94394 21.2178 2.07081 21.0701C2.19666 20.9326 2.33021 20.8024 2.47081 20.6801L2.84081 20.2901C3.08435 19.9734 3.3518 19.6759 3.64081 19.4001C3.70487 19.3649 3.75446 19.3083 3.78081 19.2401H3.95081C4.04198 19.2428 4.13063 19.2099 4.19787 19.1482C4.26511 19.0866 4.30563 19.0012 4.31081 18.9101C4.30605 18.8294 4.27186 18.7533 4.21472 18.6962C4.15759 18.639 4.08147 18.6048 4.00081 18.6001C3.14081 18.4901 3.00081 17.7001 3.19081 17.0001C3.38081 16.3001 3.86081 15.7301 4.57081 15.8201C4.90229 15.842 5.22033 15.9594 5.48652 16.1581C5.75271 16.3569 5.95564 16.6285 6.07081 16.9401C6.21379 17.2487 6.24611 17.5971 6.16234 17.9268C6.07856 18.2565 5.88379 18.5472 5.61081 18.7501C5.48442 18.8484 5.3374 18.9168 5.18081 18.9501C4.9863 18.9908 4.78913 19.0175 4.59081 19.0301C4.48912 19.0353 4.3935 19.08 4.32437 19.1548C4.25523 19.2295 4.21806 19.3283 4.22081 19.4301C4.22207 19.4809 4.23351 19.5309 4.25443 19.5772C4.27536 19.6235 4.30536 19.6651 4.34265 19.6996C4.37994 19.7341 4.42377 19.7607 4.47155 19.778C4.51933 19.7953 4.57008 19.8028 4.62081 19.8001C4.90884 19.8146 5.19758 19.7945 5.48081 19.7401H5.62081C5.88081 19.9701 6.09081 20.2201 6.31081 20.4401L6.71081 20.8401C6.85783 20.9623 6.99804 21.0925 7.13081 21.2301C7.26195 21.3803 7.37598 21.5447 7.47081 21.7201C7.49582 21.793 7.54299 21.8563 7.60575 21.9012C7.6685 21.946 7.74369 21.9701 7.82081 21.9701C7.50395 22.5227 7.29364 23.1299 7.20081 23.7601C7.17738 23.8109 7.16515 23.8661 7.16494 23.922C7.16473 23.9779 7.17655 24.0332 7.1996 24.0842C7.22265 24.1351 7.25638 24.1805 7.29852 24.2173C7.34065 24.2541 7.3902 24.2813 7.4438 24.2973C7.4974 24.3132 7.5538 24.3174 7.60918 24.3097C7.66456 24.3019 7.71762 24.2823 7.76475 24.2522C7.81189 24.2221 7.85201 24.1823 7.88239 24.1353C7.91276 24.0883 7.93269 24.0354 7.94081 23.9801C8.25475 23.3029 8.70397 22.6971 9.26081 22.2001L9.7308 21.7601C9.97263 21.5387 10.23 21.3348 10.5008 21.1501C10.5341 21.1519 10.5675 21.1519 10.6008 21.1501C11.1135 21.2403 11.6381 21.2403 12.1508 21.1501C12.1802 21.1587 12.2114 21.1587 12.2408 21.1501C12.2908 21.2215 12.3633 21.274 12.4467 21.2994C12.53 21.3248 12.6195 21.3215 12.7008 21.2901C12.8473 21.2221 12.9878 21.1418 13.1208 21.0501C13.4182 21.273 13.702 21.5134 13.9708 21.7701C14.1308 21.9301 14.2708 22.0901 14.4008 22.2401C14.8999 22.8265 15.2772 23.5063 15.5108 24.2401C15.5256 24.2895 15.5501 24.3355 15.5829 24.3754C15.6156 24.4152 15.6559 24.4482 15.7015 24.4724C15.7471 24.4966 15.797 24.5115 15.8484 24.5162C15.8998 24.521 15.9516 24.5155 16.0008 24.5001C16.0982 24.4741 16.1822 24.4122 16.236 24.3269C16.2898 24.2417 16.3093 24.1392 16.2908 24.0401C16.2451 23.3882 16.1106 22.7455 15.8908 22.1301C15.8306 22.0047 15.7603 21.8843 15.6808 21.7701C15.7708 21.7903 15.865 21.7771 15.946 21.7329C16.0269 21.6888 16.0891 21.6167 16.1208 21.5301C16.2192 21.36 16.333 21.1993 16.4608 21.0501C16.5708 20.9101 16.7208 20.8101 16.8508 20.6701C16.9808 20.5301 17.1008 20.4301 17.2208 20.2901C17.4646 19.9768 17.7321 19.6826 18.0208 19.4101C18.0898 19.3784 18.1437 19.321 18.1708 19.2501H18.3408C18.431 19.2501 18.5175 19.2143 18.5812 19.1505C18.645 19.0867 18.6808 19.0003 18.6808 18.9101C18.6808 18.8199 18.645 18.7334 18.5812 18.6697C18.5175 18.6059 18.431 18.5701 18.3408 18.5701C17.4908 18.4601 17.3408 17.6701 17.5308 16.9701C17.7208 16.2701 18.2108 15.7001 18.9208 15.7901C19.2509 15.8126 19.5674 15.9304 19.8318 16.1292C20.0963 16.328 20.2974 16.5993 20.4108 16.9101C20.567 17.2166 20.6115 17.568 20.5366 17.9038C20.4618 18.2396 20.2724 18.5388 20.0008 18.7501C19.8697 18.8467 19.7198 18.9148 19.5608 18.9501C19.3697 18.9909 19.1758 19.0176 18.9808 19.0301C18.8791 19.0353 18.7835 19.08 18.7144 19.1548C18.6452 19.2295 18.6081 19.3283 18.6108 19.4301C18.6107 19.4804 18.6209 19.5302 18.6408 19.5765C18.6606 19.6227 18.6896 19.6644 18.7261 19.699C18.7627 19.7337 18.8058 19.7605 18.8531 19.7779C18.9003 19.7952 18.9506 19.8028 19.0008 19.8001C19.2922 19.8146 19.5842 19.7945 19.8708 19.7401H20.0108C20.2708 19.9701 20.4808 20.2101 20.7008 20.4301C20.9208 20.6501 20.9708 20.6901 21.1008 20.8201C21.2308 20.9501 21.3908 21.0601 21.5208 21.2101C21.6477 21.3601 21.7614 21.5206 21.8608 21.6901C21.8745 21.7391 21.898 21.7849 21.9298 21.8247C21.9615 21.8645 22.001 21.8975 22.0457 21.9217C22.0905 21.946 22.1397 21.961 22.1904 21.9659C22.2411 21.9707 22.2922 21.9654 22.3408 21.9501C22.4383 21.92 22.5202 21.8529 22.5688 21.7632C22.6174 21.6734 22.6289 21.5682 22.6008 21.4701C22.5527 21.0123 22.4097 20.5695 22.1808 20.1701C22.082 19.978 21.9538 19.8025 21.8008 19.6501ZM10.2108 19.9901C10.0103 19.7352 9.87838 19.4332 9.82762 19.1128C9.77685 18.7925 9.80894 18.4645 9.9208 18.1601C9.98999 17.8667 10.1342 17.5963 10.3393 17.3755C10.5444 17.1546 10.8034 16.9908 11.0908 16.9001C11.5558 16.7336 12.067 16.7518 12.519 16.9508C12.9711 17.1499 13.3296 17.5147 13.5208 17.9701C14.6508 20.6701 10.8708 20.7201 10.2108 19.9901Z" fill="black"/>
<path fill-rule="evenodd" clip-rule="evenodd" d="M2.51122 13.63C2.66122 13.63 2.71122 13.77 3.39122 12.29C3.48122 12.1 3.55122 11.89 3.62122 11.7C4.08122 10.5 4.23122 10.44 4.00122 10.21C3.55122 9.80998 2.59122 11.06 2.58122 11.09C2.47249 11.2279 2.38176 11.3791 2.31122 11.54C2.24294 11.7041 2.19265 11.8751 2.16122 12.05C2.10122 12.35 2.05122 13.59 2.51122 13.63Z" fill="black"/>
<path fill-rule="evenodd" clip-rule="evenodd" d="M22.8104 11.5C22.7437 11.3393 22.6563 11.188 22.5504 11.05C22.5504 11.05 21.5504 9.76996 21.1304 10.17C20.8804 10.4 21.0204 10.48 21.4804 11.66C21.5604 11.85 21.6304 12.06 21.7104 12.25C22.4004 13.73 22.4404 13.6 22.6004 13.59C23.0604 13.59 23.0004 12.31 22.9604 12.01C22.9333 11.834 22.8829 11.6625 22.8104 11.5Z" fill="black"/>
<path fill-rule="evenodd" clip-rule="evenodd" d="M6.00003 9.22014C6.09545 9.17652 6.18595 9.12289 6.27003 9.06014C6.35835 9.00808 6.4391 8.94415 6.51003 8.87013C7.27003 8.20013 7.41003 8.15013 7.30003 7.87013C7.30003 7.76013 7.14003 7.39014 5.90003 7.82014C5.77696 7.86253 5.65944 7.91961 5.55003 7.99013C5.44468 8.05902 5.3474 8.13952 5.26003 8.23013C5.10003 8.41013 4.51003 9.23014 4.75003 9.47014C4.84003 9.55014 4.90003 9.72014 6.00003 9.22014Z" fill="black"/>
<path fill-rule="evenodd" clip-rule="evenodd" d="M18.5802 8.87013C18.6553 8.9395 18.7355 9.00302 18.8202 9.06013C18.9078 9.12299 19.0016 9.17661 19.1002 9.22013C20.2102 9.72013 20.2702 9.55013 20.3502 9.46013C20.5902 9.20013 19.9902 8.40013 19.8402 8.22013C19.7493 8.12942 19.6487 8.04894 19.5402 7.98013C19.4319 7.90767 19.3142 7.85046 19.1902 7.81013C17.9602 7.38013 17.8302 7.75013 17.7902 7.86013C17.6902 8.15013 17.8302 8.20013 18.5802 8.87013Z" fill="black"/>
</g>
<defs>
<clipPath id="clip0_161_49164">
<rect width="24" height="24" fill="white" transform="translate(0 0.5)"/>
</clipPath>
</defs>
</svg>
