<svg width="24" height="25" viewBox="0 0 24 25" fill="none" xmlns="http://www.w3.org/2000/svg">
<g clip-path="url(#clip0_161_49150)">
<path fill-rule="evenodd" clip-rule="evenodd" d="M23.0702 7.10011C23.0973 6.29831 22.9183 5.50296 22.5502 4.79011C22.1819 4.28213 21.6592 3.90681 21.0602 3.72011C20.6819 3.65536 20.2935 3.6863 19.9302 3.81011C19.5061 3.95714 19.0504 3.98821 18.6102 3.90011C18.5701 3.88985 18.5282 3.88801 18.4874 3.89472C18.4465 3.90142 18.4074 3.91652 18.3726 3.93907C18.3379 3.96162 18.3082 3.99112 18.2854 4.02572C18.2626 4.06032 18.2472 4.09927 18.2402 4.14011C18.2222 4.22228 18.2374 4.30822 18.2823 4.37933C18.3272 4.45045 18.3983 4.50102 18.4802 4.52011C19.0099 4.64989 19.5639 4.64301 20.0902 4.50011C20.3525 4.40496 20.6345 4.37744 20.9102 4.42011C21.3461 4.58072 21.7251 4.86587 22.0002 5.24011C22.3 6.0719 22.4061 6.96114 22.3102 7.84011C22.3102 9.32011 22.2002 11.0301 22.0902 12.1201C21.9502 13.4301 21.8902 15.0601 21.6602 16.6001C21.5902 17.0701 21.5002 17.5201 21.3902 17.9601C20.991 17.9601 20.5927 17.9232 20.2002 17.8501C19.0902 17.6301 18.0602 17.1901 16.8902 16.9601C16.4139 16.8737 15.9239 16.9011 15.4602 17.0401C15.2601 17.0971 15.0746 17.1961 14.9159 17.3307C14.7572 17.4652 14.6291 17.6321 14.5402 17.8201C14.4022 18.1363 14.3242 18.4754 14.3102 18.8201C14.2402 19.5201 14.3102 20.3301 14.3102 20.8801C14.3102 21.4301 14.3102 21.9701 14.2202 22.5101C14.2202 22.7601 14.1502 23.0101 14.1202 23.2601C10.9444 23.5551 7.74277 23.4002 4.61021 22.8001C3.97197 22.7045 3.34964 22.5229 2.76021 22.2601C2.44941 22.1232 2.16246 21.9375 1.91021 21.7101C2.01021 21.0501 2.52021 19.5301 2.57021 19.3301C2.84021 17.9801 3.05021 16.6001 3.19021 15.2101C3.33462 13.8249 3.40472 12.4329 3.40021 11.0401C3.40021 10.2001 3.05021 8.25011 3.06021 6.72011C3.00442 6.1796 3.11613 5.635 3.38021 5.16011C3.64489 4.86319 3.96597 4.62188 4.32478 4.4502C4.68358 4.27853 5.07294 4.17992 5.47021 4.16011C6.78348 4.11909 8.09789 4.18598 9.40021 4.36011C9.47284 4.36289 9.54371 4.33731 9.59782 4.28879C9.65194 4.24027 9.68507 4.17261 9.69021 4.10011C9.69298 4.02483 9.66636 3.95142 9.61596 3.89543C9.56557 3.83944 9.49537 3.80525 9.42021 3.80011C8.09585 3.60697 6.75852 3.5167 5.42021 3.53011C4.44546 3.57913 3.52928 4.01027 2.87021 4.73011C2.50304 5.33035 2.32531 6.02733 2.36021 6.73011C2.36021 8.25011 2.62021 10.2201 2.61021 11.0601C2.58788 12.4211 2.49107 13.7797 2.32021 15.1301C2.15021 16.4801 1.92021 17.8301 1.63021 19.1301C1.63021 19.3301 1.02021 20.9201 0.920211 21.5901C0.892899 21.7084 0.891262 21.8313 0.915411 21.9503C0.939561 22.0693 0.988936 22.1818 1.06021 22.2801C1.42418 22.6657 1.85869 22.978 2.34021 23.2001C3.01575 23.5077 3.72838 23.7262 4.46021 23.8501C7.34021 24.3401 11.8602 24.8501 15.6302 24.0801C18.3502 23.4901 20.6302 22.1901 21.7802 19.7601C22.1871 18.8035 22.4532 17.793 22.5702 16.7601C22.7802 15.2001 22.8102 13.5501 22.9302 12.2301C23.0778 10.5244 23.1246 8.81137 23.0702 7.10011ZM15.4102 23.1001C15.2002 23.1501 14.9802 23.1701 14.7702 23.2101C14.8302 22.9301 14.9102 22.6601 14.9502 22.3801C15.0369 21.9268 15.1169 21.4668 15.1902 21.0001C15.2602 20.4701 15.2702 19.6701 15.3602 19.0001C15.3891 18.7663 15.4497 18.5376 15.5402 18.3201C15.6102 18.1601 15.7902 18.1101 15.9602 18.0701C16.2284 18.0261 16.502 18.0261 16.7702 18.0701C17.9402 18.2001 18.9902 18.5601 20.1202 18.6801C20.4896 18.7104 20.8608 18.7104 21.2302 18.6801C21.1369 18.9401 21.0369 19.1901 20.9302 19.4301C19.9202 21.5001 17.8202 22.5601 15.4102 23.0601V23.1001Z" fill="black"/>
<path fill-rule="evenodd" clip-rule="evenodd" d="M11.891 4.9501C12.087 5.07637 12.2946 5.18353 12.511 5.2701C12.3181 5.46167 12.1378 5.66542 11.971 5.8801C11.8763 6.01842 11.7895 6.16198 11.711 6.3101C11.6301 6.45682 11.5631 6.61083 11.511 6.7701C11.371 7.1501 11.271 7.5201 11.161 7.9001C11.1342 7.93823 11.116 7.98177 11.1078 8.02766C11.0996 8.07354 11.1014 8.12067 11.1133 8.16575C11.1252 8.21083 11.1468 8.25277 11.1766 8.28864C11.2064 8.3245 11.2436 8.35343 11.2858 8.37338C11.3279 8.39334 11.3739 8.40385 11.4205 8.40418C11.4671 8.40451 11.5133 8.39464 11.5557 8.37528C11.5981 8.35592 11.6357 8.32752 11.666 8.29208C11.6963 8.25664 11.7185 8.21501 11.731 8.1701C11.951 7.8501 12.181 7.5501 12.401 7.2301C12.4917 7.09459 12.5751 6.9544 12.651 6.8101C12.731 6.67185 12.8011 6.52816 12.861 6.3801C12.981 6.0801 13.071 5.7901 13.171 5.5001C13.222 5.5052 13.2733 5.49451 13.3181 5.46947C13.3628 5.44443 13.3987 5.40625 13.421 5.3601C13.4378 5.32746 13.4477 5.29174 13.4503 5.25512C13.4528 5.2185 13.4478 5.18176 13.4356 5.14713C13.4235 5.1125 13.4044 5.08071 13.3795 5.05371C13.3546 5.02671 13.3245 5.00507 13.291 4.9901L13.181 4.9301H13.131C12.8407 4.80103 12.5657 4.64004 12.311 4.4501C12.1514 4.31723 12.042 4.13373 12.001 3.9301C11.8848 3.5829 11.892 3.20623 12.0213 2.86371C12.1507 2.52119 12.3943 2.23381 12.711 2.0501C12.9992 1.82322 13.3374 1.66853 13.6975 1.59895C14.0576 1.52937 14.4291 1.54691 14.781 1.6501C15.143 1.78476 15.4807 1.97726 15.781 2.2201C16.053 2.42282 16.2416 2.71803 16.311 3.0501C16.3294 3.32852 16.2776 3.60711 16.1606 3.8604C16.0436 4.11369 15.8649 4.33362 15.641 4.5001C15.4411 4.71676 15.1893 4.87906 14.9095 4.97177C14.6296 5.06447 14.3308 5.08455 14.041 5.0301C13.9627 5.00612 13.8782 5.01305 13.8049 5.04947C13.7316 5.0859 13.675 5.14904 13.6468 5.2259C13.6186 5.30277 13.621 5.38751 13.6534 5.4627C13.6858 5.53789 13.7458 5.5978 13.821 5.6301C14.2228 5.74236 14.6463 5.75269 15.0531 5.66016C15.4599 5.56762 15.8373 5.37513 16.151 5.1001C16.4983 4.85199 16.7775 4.52036 16.9627 4.13585C17.148 3.75133 17.2334 3.32633 17.211 2.9001C17.1649 2.43861 16.9721 2.00404 16.661 1.6601C16.235 1.21315 15.7114 0.870882 15.131 0.660101C14.6096 0.498369 14.0562 0.468523 13.5204 0.573238C12.9846 0.677952 12.4832 0.913956 12.061 1.2601C11.6072 1.5788 11.2789 2.04595 11.1329 2.5809C10.9868 3.11585 11.0321 3.68501 11.261 4.1901C11.388 4.50213 11.6079 4.76748 11.891 4.9501Z" fill="black"/>
<path fill-rule="evenodd" clip-rule="evenodd" d="M19.9406 10.5001C19.9312 10.4598 19.9139 10.4217 19.8896 10.3882C19.8653 10.3547 19.8345 10.3264 19.7991 10.3049C19.7637 10.2835 19.7243 10.2694 19.6833 10.2634C19.6424 10.2574 19.6006 10.2597 19.5606 10.2701C18.511 10.4615 17.4473 10.5652 16.3806 10.5801C15.5906 10.5801 14.8006 10.5801 13.9906 10.4701C13.1806 10.3601 12.4106 10.3201 11.6106 10.2001C10.329 9.9772 9.0313 9.86013 7.73055 9.8501C6.81381 9.8929 5.92721 10.1907 5.17055 10.7101C5.13286 10.7254 5.09897 10.7488 5.07123 10.7786C5.04349 10.8084 5.02257 10.8438 5.00994 10.8825C4.9973 10.9212 4.99325 10.9622 4.99806 11.0026C5.00287 11.043 5.01644 11.0818 5.0378 11.1165C5.05917 11.1511 5.08783 11.1807 5.12179 11.2031C5.15575 11.2255 5.19418 11.2403 5.23442 11.2463C5.27467 11.2524 5.31574 11.2496 5.3548 11.2382C5.39385 11.2267 5.42994 11.2069 5.46055 11.1801C6.16215 10.7993 6.95274 10.6129 7.75055 10.6401C9.00091 10.749 10.2412 10.9529 11.4606 11.2501C12.8285 11.4417 14.2095 11.5253 15.5906 11.5001C16.9796 11.4498 18.3585 11.2418 19.7006 10.8801C19.7825 10.861 19.8536 10.8104 19.8985 10.7393C19.9434 10.6682 19.9585 10.5823 19.9406 10.5001Z" fill="black"/>
<path fill-rule="evenodd" clip-rule="evenodd" d="M15.9107 15.2802C16.9203 15.3408 17.9331 15.2396 18.9107 14.9802C18.9508 14.9703 18.9885 14.9527 19.0217 14.9282C19.055 14.9038 19.0831 14.8731 19.1044 14.8378C19.1258 14.8025 19.14 14.7634 19.1462 14.7226C19.1524 14.6818 19.1506 14.6402 19.1407 14.6002C19.1309 14.5601 19.1132 14.5224 19.0888 14.4891C19.0644 14.4559 19.0337 14.4278 18.9984 14.4065C18.9631 14.3851 18.9239 14.3709 18.8832 14.3647C18.8424 14.3584 18.8008 14.3603 18.7607 14.3702C17.8458 14.5323 16.911 14.5492 15.9907 14.4202C15.2907 14.3402 14.5907 14.1902 13.9107 14.0502L11.8007 13.5802C10.5841 13.2852 9.33069 13.1707 8.08073 13.2402C7.2184 13.322 6.39008 13.6176 5.67073 14.1002C5.6092 14.1393 5.56536 14.2009 5.54855 14.2719C5.53175 14.3428 5.54329 14.4176 5.58073 14.4802C5.62014 14.5441 5.68281 14.5902 5.75555 14.6089C5.82829 14.6275 5.90543 14.6172 5.97073 14.5802C6.63505 14.2233 7.37664 14.0345 8.13073 14.0302C8.82211 14.0419 9.50989 14.1325 10.1807 14.3002C10.6407 14.4002 11.1107 14.5002 11.5707 14.6202C12.2507 14.7702 12.9707 14.9402 13.7107 15.0602C14.4383 15.1825 15.1733 15.256 15.9107 15.2802Z" fill="black"/>
<path fill-rule="evenodd" clip-rule="evenodd" d="M9.85091 17.6202C9.35449 17.4696 8.8459 17.3625 8.33091 17.3002C7.42728 17.2042 6.51458 17.3563 5.69091 17.7402C5.6209 17.7631 5.56274 17.8127 5.52905 17.8782C5.49535 17.9437 5.48884 18.0199 5.51091 18.0902C5.53592 18.1587 5.58584 18.2153 5.6507 18.2486C5.71557 18.282 5.79063 18.2897 5.86091 18.2702C6.23416 18.1824 6.61808 18.1487 7.00091 18.1702C7.30995 18.1892 7.61734 18.2293 7.92091 18.2902L8.86091 18.4702C9.86818 18.695 10.8992 18.7958 11.9309 18.7702C11.9725 18.7715 12.0138 18.7645 12.0526 18.7495C12.0914 18.7345 12.1268 18.7119 12.1566 18.683C12.1865 18.6541 12.2102 18.6194 12.2264 18.5812C12.2426 18.5429 12.2509 18.5017 12.2509 18.4602C12.251 18.377 12.2186 18.2971 12.1608 18.2374C12.1029 18.1776 12.024 18.1428 11.9409 18.1402C11.2295 18.0324 10.5298 17.8583 9.85091 17.6202Z" fill="black"/>
</g>
<defs>
<clipPath id="clip0_161_49150">
<rect width="24" height="24" fill="white" transform="translate(0 0.5)"/>
</clipPath>
</defs>
</svg>
