<svg width="24" height="25" viewBox="0 0 24 25" fill="none" xmlns="http://www.w3.org/2000/svg">
<g clip-path="url(#clip0_161_49145)">
<path fill-rule="evenodd" clip-rule="evenodd" d="M23.2797 18.1901C21.3397 14.4401 16.1097 16.1901 15.6897 14.7301C15.2697 13.2701 16.3297 11.6101 16.8897 10.1601C18.8897 4.91006 16.4397 0.710057 13.3097 0.520057C9.99969 0.320057 7.33969 1.89006 6.66969 5.60006C5.66969 11.0001 9.77969 11.8601 8.90969 14.4301C8.56442 15.1003 8.02413 15.6503 7.36003 16.0073C6.69594 16.3643 5.93924 16.5117 5.18969 16.4301C4.11074 16.1614 2.98957 16.107 1.88969 16.2701C0.31969 16.7801 0.27969 18.2701 0.61969 19.8801C0.633997 19.9694 0.676766 20.0517 0.741632 20.1148C0.806498 20.1778 0.889992 20.2183 0.97969 20.2301C1.02547 20.2256 1.06944 20.2099 1.10771 20.1844C1.14598 20.1589 1.17738 20.1243 1.19913 20.0838C1.22087 20.0432 1.2323 19.998 1.2324 19.952C1.2325 19.906 1.22126 19.8607 1.19969 19.8201C1.00969 18.5401 0.80969 17.2801 2.08969 16.8901C3.73969 16.3801 5.17969 17.8901 7.74969 16.6301C8.61971 16.2336 9.30369 15.5174 9.65969 14.6301C10.7797 11.5401 6.65969 10.8101 7.65969 5.73006C8.18969 2.98006 9.83969 1.61006 12.9997 1.60006C15.5997 1.60006 17.6097 5.17006 15.8697 9.76006C15.2997 11.2501 14.0697 13.1101 14.6497 15.0501C15.4797 17.7601 20.5697 15.1801 22.4197 18.6601C22.6797 19.1401 22.6397 19.3801 22.1797 19.6101C19.7897 20.7501 13.0697 19.6101 11.8297 19.5401C8.77969 19.3901 4.65969 19.9301 1.65969 19.9601C1.57217 19.9601 1.48823 19.9948 1.42634 20.0567C1.36446 20.1186 1.32969 20.2025 1.32969 20.2901C1.32969 20.3776 1.36446 20.4615 1.42634 20.5234C1.48823 20.5853 1.57217 20.6201 1.65969 20.6201H2.16969C1.91969 22.0801 2.32969 23.6201 3.80969 23.8401C6.89831 24.2553 10.0137 24.4392 13.1297 24.3901C17.5097 24.4601 18.3997 24.6401 19.6097 24.2801C20.1721 24.1511 20.6853 23.8627 21.0879 23.4494C21.4905 23.0362 21.7654 22.5156 21.8797 21.9501C21.8834 21.5337 21.8432 21.118 21.7597 20.7101C23.5497 20.3301 23.8697 19.3401 23.2797 18.1901ZM21.1497 21.6901C21.1497 22.5501 20.1497 23.2301 19.3597 23.4301C17.8897 23.8001 17.5897 23.3001 10.1997 23.2401C8.58969 23.2401 6.19969 23.2401 3.88969 23.0501C2.81969 22.9601 2.58969 21.6501 2.73969 20.6101C15.5297 20.2801 18.6297 21.1301 21.0697 20.8201C21.0997 21.1201 21.1497 21.4101 21.1497 21.6901Z" fill="black"/>
<path fill-rule="evenodd" clip-rule="evenodd" d="M12.4299 3.17002C11.9999 3.96002 14.4299 3.56002 14.4299 7.34002C14.4299 8.04002 15.6899 8.55002 15.7199 7.07002C15.7257 6.06765 15.4025 5.09104 14.7999 4.29002C14.1799 3.36002 12.6799 2.72002 12.4299 3.17002Z" fill="black"/>
</g>
<defs>
<clipPath id="clip0_161_49145">
<rect width="24" height="24" fill="white" transform="translate(0 0.5)"/>
</clipPath>
</defs>
</svg>
