<svg width="24" height="25" viewBox="0 0 24 25" fill="none" xmlns="http://www.w3.org/2000/svg">
<g clip-path="url(#clip0_161_49158)">
<path fill-rule="evenodd" clip-rule="evenodd" d="M10.5408 10.0101C11.0488 9.60697 11.6292 9.30487 12.2508 9.12006C12.8729 8.91846 13.5313 8.85365 14.1808 8.93006C14.2236 8.94025 14.268 8.94151 14.3113 8.93376C14.3546 8.92601 14.3959 8.90942 14.4324 8.88503C14.469 8.86063 14.5002 8.82895 14.524 8.79196C14.5478 8.75497 14.5638 8.71348 14.5708 8.67006C14.581 8.62595 14.5819 8.58023 14.5737 8.53572C14.5654 8.49122 14.5481 8.4489 14.5227 8.41138C14.4974 8.37386 14.4646 8.34196 14.4265 8.31765C14.3883 8.29333 14.3455 8.27714 14.3008 8.27006C13.5554 8.11506 12.7862 8.11506 12.0408 8.27006C11.2859 8.41911 10.5642 8.70371 9.91081 9.11006C9.63809 9.25018 9.39816 9.44651 9.20683 9.6861C9.01551 9.92569 8.87712 10.2031 8.80081 10.5001C8.77399 10.7383 8.80244 10.9795 8.88395 11.205C8.96546 11.4304 9.09784 11.6341 9.27081 11.8001C9.49111 12.0471 9.75846 12.2478 10.0572 12.3903C10.356 12.5328 10.6802 12.6143 11.0108 12.6301C11.6585 12.6422 12.3038 12.5476 12.9208 12.3501C13.3957 12.184 13.8985 12.1127 14.4008 12.1401C15.2208 12.2701 16.0908 12.7801 16.9508 12.9501C17.3977 13.0554 17.865 13.0346 18.3008 12.8901C18.3976 12.8609 18.4789 12.7945 18.5267 12.7054C18.5745 12.6163 18.585 12.5119 18.5558 12.4151C18.5266 12.3183 18.4602 12.237 18.3711 12.1892C18.282 12.1414 18.1776 12.1309 18.0808 12.1601C17.7726 12.2401 17.449 12.2401 17.1408 12.1601C16.2808 11.9201 15.4308 11.3201 14.6108 11.1601C13.9468 11.0399 13.2648 11.0637 12.6108 11.2301C12.1095 11.369 11.591 11.4363 11.0708 11.4301C10.7283 11.4095 10.4065 11.2593 10.1708 11.0101C10.0508 10.8801 9.97081 10.8001 10.0108 10.7001C10.1037 10.4164 10.2907 10.173 10.5408 10.0101Z" fill="black"/>
<path fill-rule="evenodd" clip-rule="evenodd" d="M22.2098 8.66C21.1398 8.21 20.2098 7.66 19.1598 7.15C18.4677 6.79769 17.7447 6.50981 16.9998 6.29C15.7462 5.94224 14.4305 5.88072 13.1498 6.11C13.3331 5.41804 13.4602 4.71241 13.5298 4C13.5892 3.37595 13.5623 2.74669 13.4498 2.13C13.1998 0.94 12.5598 0.5 11.9998 0.5C11.6264 0.535023 11.2674 0.662044 10.9551 0.869706C10.6427 1.07737 10.3867 1.3592 10.2098 1.69L9.49985 2.94C9.00622 4.04924 8.58207 5.1881 8.22985 6.35C8.22985 6.35 8.13985 6.35 8.10985 6.35C7.24237 6.9221 6.48944 7.65129 5.88985 8.5C5.57889 8.90643 5.30765 9.34176 5.07985 9.8C4.84717 10.2666 4.66288 10.7558 4.52985 11.26C4.4283 11.636 4.4052 12.029 4.46197 12.4143C4.51874 12.7997 4.65417 13.1692 4.85985 13.5C5.05889 13.7646 5.35406 13.9401 5.68154 13.9888C6.00902 14.0375 6.34249 13.9553 6.60985 13.76C6.31305 14.9858 6.14547 16.2393 6.10985 17.5C6.11847 17.6552 6.14191 17.8092 6.17985 17.96C6.21124 18.1208 6.25813 18.2782 6.31985 18.43C6.46982 18.7826 6.65758 19.1179 6.87985 19.43C7.00985 19.74 7.70985 19.92 8.94985 18.77C9.08003 18.6498 9.20042 18.5194 9.30985 18.38C9.42116 18.2414 9.52147 18.0943 9.60985 17.94C9.78184 17.5848 9.93538 17.221 10.0698 16.85C10.4357 17.1663 10.8558 17.4136 11.3098 17.58C11.5766 17.6791 11.856 17.7397 12.1398 17.76C12.5735 17.7904 13.0092 17.7498 13.4298 17.64C13.5198 17.64 13.5898 17.53 13.6798 17.49C14.4011 17.9536 15.2331 18.216 16.0898 18.25C16.6857 18.2437 17.2791 18.1733 17.8598 18.04C18.6615 17.8253 19.4766 17.665 20.2998 17.56C20.4006 17.56 20.4973 17.52 20.5685 17.4487C20.6398 17.3774 20.6798 17.2808 20.6798 17.18C20.6798 17.0792 20.6398 16.9826 20.5685 16.9113C20.4973 16.84 20.4006 16.8 20.2998 16.8C19.2999 16.7265 18.2952 16.7499 17.2998 16.87L16.1698 16.98H15.4498C15.1135 16.9807 14.778 16.9438 14.4498 16.87C14.5664 16.7485 14.6641 16.6103 14.7398 16.46C14.8712 16.1789 14.8959 15.8596 14.8094 15.5616C14.723 15.2636 14.5312 15.0072 14.2698 14.84C14.2698 14.84 14.1798 14.84 14.1298 14.84C14.3592 14.6884 14.5548 14.4912 14.7045 14.2606C14.8541 14.0301 14.9547 13.7712 14.9998 13.5C15.0394 13.2477 15.0001 12.9894 14.8874 12.7603C14.7746 12.5312 14.5939 12.3425 14.3698 12.22C14.2887 12.1687 14.191 12.1501 14.0967 12.1678C14.0023 12.1856 13.9181 12.2384 13.8611 12.3157C13.8041 12.393 13.7784 12.489 13.7893 12.5844C13.8002 12.6798 13.8469 12.7676 13.9198 12.83C13.9857 12.8888 14.0323 12.9659 14.0537 13.0515C14.0751 13.1371 14.0703 13.2272 14.0398 13.31C13.9738 13.4526 13.8751 13.5775 13.7518 13.6748C13.6284 13.7721 13.4839 13.839 13.3298 13.87C13.0853 13.916 12.8344 13.916 12.5898 13.87L11.9898 13.81C11.6967 13.7664 11.4062 13.7063 11.1198 13.63V13.08C11.1422 13.0359 11.1547 12.9875 11.1565 12.9381C11.1583 12.8887 11.1492 12.8395 11.13 12.7939C11.1108 12.7484 11.0819 12.7076 11.0453 12.6743C11.0087 12.6411 10.9653 12.6162 10.9181 12.6015C10.8709 12.5867 10.8211 12.5825 10.7721 12.5889C10.7231 12.5954 10.6761 12.6125 10.6344 12.639C10.5926 12.6656 10.5572 12.7009 10.5305 12.7425C10.5038 12.7841 10.4865 12.831 10.4798 12.88C10.3798 13.06 9.73985 14.32 9.68985 14.48C9.64264 14.6509 9.6059 14.8246 9.57985 15C9.57498 15.0733 9.57498 15.1467 9.57985 15.22C9.31985 15.11 9.09985 14.98 8.83985 14.88C8.73189 14.8284 8.61755 14.7914 8.49985 14.77C8.38816 14.7436 8.2744 14.7269 8.15985 14.72C7.84985 14.72 7.58985 14.78 7.28985 14.8H7.22985C7.76985 12.69 8.31985 10.49 8.94985 8.33C9.39312 6.68047 9.958 5.06605 10.6398 3.5L11.1998 2.35C11.4298 1.96 11.6698 1.65 11.9498 1.64C12.2298 1.63 12.3198 1.91 12.4398 2.38C12.5696 2.90291 12.6235 3.44175 12.5998 3.98C12.5658 4.8288 12.4519 5.67251 12.2598 6.5C12.2384 6.59797 12.2556 6.70042 12.3077 6.78608C12.3598 6.87175 12.443 6.93403 12.5398 6.96C12.6192 6.97488 12.7013 6.96338 12.7735 6.92727C12.8457 6.89116 12.9041 6.83242 12.9398 6.76C12.982 6.77448 13.0277 6.77448 13.0698 6.76C13.9794 6.76223 14.8832 6.90388 15.7498 7.18C16.0698 7.28 16.3898 7.4 16.6998 7.51C17.1898 7.68 17.6998 7.87 18.1498 8.05C19.3898 8.52 20.6398 9 21.9598 9.36C22.0567 9.39201 22.1622 9.38482 22.2538 9.33995C22.3454 9.29509 22.4158 9.21613 22.4498 9.12C22.4782 9.02717 22.4689 8.92693 22.424 8.84088C22.3791 8.75484 22.3022 8.68988 22.2098 8.66ZM6.63985 12.5C6.51846 12.6469 6.36434 12.7634 6.18985 12.84C6.07683 12.8813 5.95286 12.8813 5.83985 12.84C5.75985 12.84 5.75985 12.71 5.72985 12.62C5.62038 12.2649 5.62038 11.8851 5.72985 11.53C5.87672 11.016 6.06397 10.5145 6.28985 10.03C6.50904 9.52953 6.763 9.04501 7.04985 8.58C7.2904 8.22929 7.55434 7.8952 7.83985 7.58C7.83985 7.76 7.72985 7.92 7.67985 8.1C7.36058 9.4235 7.08708 10.7576 6.85985 12.1C6.80985 12.24 6.73985 12.37 6.63985 12.5ZM11.9998 15.1C12.5193 15.2497 13.0704 15.2497 13.5898 15.1C13.5649 15.1691 13.5612 15.244 13.579 15.3152C13.5968 15.3865 13.6354 15.4508 13.6898 15.5C13.759 15.5827 13.7969 15.6872 13.7969 15.795C13.7969 15.9028 13.759 16.0073 13.6898 16.09C13.615 16.189 13.5204 16.2713 13.4119 16.3316C13.3034 16.3919 13.1835 16.4288 13.0598 16.44C12.758 16.5067 12.4487 16.5336 12.1398 16.52C11.8049 16.5357 11.4693 16.5122 11.1398 16.45C10.826 16.3823 10.5231 16.2712 10.2398 16.12C10.3698 15.88 10.4998 15.65 10.6098 15.41C10.6862 15.2486 10.7497 15.0814 10.7998 14.91C10.8246 14.8245 10.8446 14.7377 10.8598 14.65C11.22 14.8462 11.6028 14.9973 11.9998 15.1ZM7.08985 15.5C7.33456 15.6755 7.59193 15.8326 7.85985 15.97C7.97127 16.0216 8.08891 16.0586 8.20985 16.08C8.33297 16.0903 8.45673 16.0903 8.57985 16.08C8.87085 16.0716 9.16124 16.0482 9.44985 16.01V16.24C9.41907 16.3205 9.41907 16.4095 9.44985 16.49C9.1203 16.7477 8.80641 17.0249 8.50985 17.32C8.34202 17.5249 8.18513 17.7385 8.03985 17.96C7.86985 18.22 7.71985 18.49 7.55985 18.75C7.55985 18.5167 7.53985 18.2867 7.49985 18.06C7.47774 17.8166 7.43424 17.5757 7.36985 17.34C7.22999 16.9419 7.04193 16.5624 6.80985 16.21C6.80985 16.21 6.86985 16.14 6.87985 16.1C6.93985 15.88 6.99985 15.65 7.04985 15.43C7.05985 15.5 7.06985 15.5 7.08985 15.5Z" fill="black"/>
<path fill-rule="evenodd" clip-rule="evenodd" d="M10.88 21.92C9.75689 21.4816 8.53096 21.3775 7.34999 21.62L6.16999 21.92L4.89999 22.1C4.63854 22.1103 4.37679 22.0901 4.11999 22.04C3.87936 21.9896 3.64707 21.9054 3.42999 21.79C3.01999 21.58 2.73999 21.33 2.68999 21.02C2.66997 20.8274 2.7021 20.633 2.78303 20.457C2.86396 20.2811 2.9907 20.1302 3.14999 20.02C3.53041 19.6926 3.97238 19.4444 4.44999 19.29C4.9511 19.1322 5.47475 19.0579 5.99999 19.07C6.07891 19.0563 6.15047 19.0152 6.20204 18.9539C6.25362 18.8926 6.2819 18.8151 6.2819 18.735C6.2819 18.6549 6.25362 18.5774 6.20204 18.5161C6.15047 18.4548 6.07891 18.4137 5.99999 18.4C5.4085 18.3362 4.81053 18.3699 4.22999 18.5C3.61872 18.6334 3.04056 18.8884 2.52999 19.25C2.20858 19.4458 1.946 19.7248 1.76999 20.0575C1.59398 20.3901 1.51106 20.7641 1.52999 21.14C1.58418 21.5167 1.73019 21.8742 1.95515 22.1812C2.18011 22.4881 2.47712 22.735 2.81999 22.9C3.13035 23.0826 3.46796 23.2143 3.81999 23.29C4.17475 23.3654 4.53764 23.3957 4.89999 23.38C5.16493 23.3727 5.42897 23.346 5.68999 23.3C5.93999 23.3 6.18999 23.2 6.43999 23.14L7.63999 22.75C8.55303 22.4747 9.52695 22.4747 10.44 22.75C10.6 22.82 10.75 22.89 10.79 23.04C10.83 23.19 10.79 23.52 10.5 23.88C10.4698 23.9201 10.4478 23.9657 10.4352 24.0142C10.4226 24.0628 10.4197 24.1134 10.4267 24.1631C10.4337 24.2127 10.4503 24.2606 10.4758 24.3038C10.5012 24.347 10.5349 24.3848 10.575 24.415C10.615 24.4452 10.6607 24.4672 10.7092 24.4798C10.7578 24.4924 10.8083 24.4953 10.858 24.4883C10.9584 24.4743 11.049 24.4209 11.11 24.34C11.3067 24.1433 11.4551 23.9037 11.5436 23.6399C11.6321 23.3762 11.6582 23.0956 11.62 22.82C11.5679 22.6259 11.4749 22.4452 11.3473 22.29C11.2197 22.1348 11.0603 22.0086 10.88 21.92Z" fill="black"/>
</g>
<defs>
<clipPath id="clip0_161_49158">
<rect width="24" height="24" fill="white" transform="translate(0 0.5)"/>
</clipPath>
</defs>
</svg>
